<svg xmlns="http://www.w3.org/2000/svg" xmlns:xlink="http://www.w3.org/1999/xlink" width="512" height="512" viewBox="0 0 512 512" fill="none"><g opacity="1"  transform="translate(0 0)  rotate(0)"><mask id="bg-mask-0" fill="white"><use transform="translate(0 0)  rotate(0)" xlink:href="#path_0"></use></mask><g mask="url(#bg-mask-0)" ><g opacity="1"  transform="translate(81 87)  rotate(0)"><path id="矩形 1" fill-rule="evenodd" style="fill:#34B4D4" opacity="1" d="M27 247L220 247L290.35 338.5L299.38 338.5L299.38 247L323 247C337.91 247 350 234.91 350 220L350 27C350 12.09 337.91 0 323 0L27 0C12.09 0 0 12.09 0 27L0 220C0 234.91 12.09 247 27 247Z"></path><path  id="矩形 1" style="fill:#000000; opacity:1;" d="M27 239.5L223.694 239.5L296.296 333.929L290.35 338.5L290.35 331L299.38 331L299.38 338.5L291.88 338.5L291.88 239.5L323 239.5C333.77 239.5 342.5 230.77 342.5 220L342.5 27C342.5 16.2304 333.77 7.5 323 7.5L27 7.5C16.2304 7.5 7.5 16.2304 7.5 27L7.5 220C7.5 230.77 16.2304 239.5 27 239.5ZM27 254.5C7.94618 254.5 -7.5 239.054 -7.5 220L-7.5 27C-7.5 7.94618 7.94618 -7.5 27 -7.5L323 -7.5C342.054 -7.5 357.5 7.94618 357.5 27L357.5 220C357.5 239.054 342.054 254.5 323 254.5L299.38 254.5L299.38 247L306.88 247L306.88 346L286.656 346L214.054 251.571L220 247L220 254.5L27 254.5Z"></path><path id="文本 1" fill-rule="evenodd" style="fill:#000000" opacity="1" d="M116 195.5C105.2 195.5 96.4 192.4 96.4 192.4C87.6 189.3 81.4 183.5 81.4 183.5C75.2 177.7 71.8 169.5 71.8 169.5C68.4 161.3 68.4 151.3 68.4 151.3L68.4 91.7C68.4 81.7 71.8 73.5 71.8 73.5C75.2 65.3 81.4 59.5 81.4 59.5C87.6 53.7 96.4 50.6 96.4 50.6C105.2 47.5 116 47.5 116 47.5C126.6 47.5 135.1 50.5 135.1 50.5C143.6 53.5 149.8 59 149.8 59C156 64.5 159.6 72.4 159.6 72.4C163.2 80.3 163.6 89.9 163.6 89.9L138.6 89.9C138.2 80.5 132.1 75.2 132.1 75.2C126 69.9 116 69.9 116 69.9C105.6 69.9 99.5 75.7 99.5 75.7C93.4 81.5 93.4 91.7 93.4 91.7L93.4 151.3C93.4 161.5 99.3 167.3 99.3 167.3C105.2 173.1 116 173.1 116 173.1C126 173.1 132.1 167.6 132.1 167.6C138.2 162.1 138.6 152.9 138.6 152.9L163.6 152.9C162.6 172.5 149.9 184 149.9 184C137.2 195.5 116 195.5 116 195.5ZM236 195.5C225.2 195.5 216.4 192.4 216.4 192.4C207.6 189.3 201.4 183.5 201.4 183.5C195.2 177.7 191.8 169.5 191.8 169.5C188.4 161.3 188.4 151.3 188.4 151.3L188.4 91.7C188.4 81.7 191.8 73.5 191.8 73.5C195.2 65.3 201.4 59.5 201.4 59.5C207.6 53.7 216.4 50.6 216.4 50.6C225.2 47.5 236 47.5 236 47.5C246.6 47.5 255.1 50.5 255.1 50.5C263.6 53.5 269.8 59 269.8 59C276 64.5 279.6 72.4 279.6 72.4C283.2 80.3 283.6 89.9 283.6 89.9L258.6 89.9C258.2 80.5 252.1 75.2 252.1 75.2C246 69.9 236 69.9 236 69.9C225.6 69.9 219.5 75.7 219.5 75.7C213.4 81.5 213.4 91.7 213.4 91.7L213.4 151.3C213.4 161.5 219.3 167.3 219.3 167.3C225.2 173.1 236 173.1 236 173.1C246 173.1 252.1 167.6 252.1 167.6C258.2 162.1 258.6 152.9 258.6 152.9L283.6 152.9C282.6 172.5 269.9 184 269.9 184C257.2 195.5 236 195.5 236 195.5Z"></path></g><g opacity="1"  transform="translate(354 57)  rotate(0)"><path id="矩形 2" fill-rule="evenodd" style="fill:#E33C64" opacity="1" d="M8 60L146.29 60C150.71 60 154.29 56.42 154.29 52L154.29 8C154.29 3.58 150.71 0 146.29 0L8 0C3.58 0 0 3.58 0 8L0 52C0 56.42 3.58 60 8 60Z"></path><path id="文本 1" fill-rule="evenodd" style="fill:#FFFFFF" opacity="1" d="M20.008 16.68L22.708 24.924C22.888 25.464 23.032 26.094 23.032 26.094C23.176 26.724 23.284 27.3 23.284 27.3C23.392 27.948 23.464 28.596 23.464 28.596L23.752 28.596C23.824 27.948 23.968 27.3 23.968 27.3C24.04 26.724 24.166 26.094 24.166 26.094C24.292 25.464 24.472 24.924 24.472 24.924L26.956 16.68L32.356 16.68L32.356 42.6L28.324 42.6L28.324 25.788C28.324 24.816 28.414 23.754 28.414 23.754C28.504 22.692 28.576 21.828 28.576 21.828C28.684 20.784 28.828 19.812 28.828 19.812L28.36 19.812C28.144 20.748 27.928 21.684 27.928 21.684C27.748 22.512 27.514 23.412 27.514 23.412C27.28 24.312 27.028 25.032 27.028 25.032L25.228 31.188L21.844 31.188L19.936 25.032C19.684 24.24 19.432 23.34 19.432 23.34C19.18 22.44 19 21.648 19 21.648C18.784 20.712 18.568 19.812 18.568 19.812L18.172 19.812C18.316 20.784 18.424 21.828 18.424 21.828C18.532 22.692 18.604 23.754 18.604 23.754C18.676 24.816 18.676 25.788 18.676 25.788L18.676 42.6L14.68 42.6L14.68 16.68L20.008 16.68ZM37.288 38.496L44.38 38.496L44.38 26.868L38.188 26.868L38.188 22.8L48.7 22.8L48.7 38.496L54.424 38.496L54.424 42.6L37.288 42.6L37.288 38.496ZM43.084 17.436C43.084 16.392 43.786 15.726 43.786 15.726C44.488 15.06 45.64 15.06 45.64 15.06L46.576 15.06C47.728 15.06 48.43 15.726 48.43 15.726C49.132 16.392 49.132 17.436 49.132 17.436C49.132 18.516 48.43 19.164 48.43 19.164C47.728 19.812 46.54 19.812 46.54 19.812L45.64 19.812C44.488 19.812 43.786 19.164 43.786 19.164C43.084 18.516 43.084 17.436 43.084 17.436ZM63.568 22.8L63.568 26.22L63.892 26.22C64.252 24.42 65.692 23.43 65.692 23.43C67.132 22.44 69.364 22.44 69.364 22.44C72.568 22.44 74.368 24.42 74.368 24.42C76.168 26.4 76.168 29.892 76.168 29.892L76.168 31.332L71.452 31.332L71.452 30.288C71.452 28.38 70.408 27.318 70.408 27.318C69.364 26.256 67.528 26.256 67.528 26.256C65.8 26.256 64.81 27.336 64.81 27.336C63.82 28.416 63.82 30.288 63.82 30.288L63.82 42.6L59.32 42.6L59.32 22.8L63.568 22.8ZM85.168 22.8L85.168 26.22L85.492 26.22C85.852 24.42 87.292 23.43 87.292 23.43C88.732 22.44 90.964 22.44 90.964 22.44C94.168 22.44 95.968 24.42 95.968 24.42C97.768 26.4 97.768 29.892 97.768 29.892L97.768 31.332L93.052 31.332L93.052 30.288C93.052 28.38 92.008 27.318 92.008 27.318C90.964 26.256 89.128 26.256 89.128 26.256C87.4 26.256 86.41 27.336 86.41 27.336C85.42 28.416 85.42 30.288 85.42 30.288L85.42 42.6L80.92 42.6L80.92 22.8L85.168 22.8ZM109.9 42.96C107.956 42.96 106.354 42.384 106.354 42.384C104.752 41.808 103.636 40.782 103.636 40.782C102.52 39.756 101.908 38.316 101.908 38.316C101.296 36.876 101.296 35.112 101.296 35.112L101.296 30.252C101.296 28.488 101.908 27.048 101.908 27.048C102.52 25.608 103.636 24.582 103.636 24.582C104.752 23.556 106.354 22.998 106.354 22.998C107.956 22.44 109.9 22.44 109.9 22.44C111.844 22.44 113.446 22.998 113.446 22.998C115.048 23.556 116.164 24.582 116.164 24.582C117.28 25.608 117.892 27.048 117.892 27.048C118.504 28.488 118.504 30.252 118.504 30.252L118.504 35.112C118.504 36.876 117.892 38.334 117.892 38.334C117.28 39.792 116.164 40.818 116.164 40.818C115.048 41.844 113.464 42.402 113.464 42.402C111.88 42.96 109.9 42.96 109.9 42.96ZM105.796 35.112C105.796 36.912 106.894 37.956 106.894 37.956C107.992 39 109.9 39 109.9 39C111.808 39 112.906 37.956 112.906 37.956C114.004 36.912 114.004 35.112 114.004 35.112L114.004 30.252C114.004 28.452 112.906 27.408 112.906 27.408C111.808 26.364 109.9 26.364 109.9 26.364C107.992 26.364 106.894 27.408 106.894 27.408C105.796 28.452 105.796 30.252 105.796 30.252L105.796 35.112ZM128.368 22.8L128.368 26.22L128.692 26.22C129.052 24.42 130.492 23.43 130.492 23.43C131.932 22.44 134.164 22.44 134.164 22.44C137.368 22.44 139.168 24.42 139.168 24.42C140.968 26.4 140.968 29.892 140.968 29.892L140.968 31.332L136.252 31.332L136.252 30.288C136.252 28.38 135.208 27.318 135.208 27.318C134.164 26.256 132.328 26.256 132.328 26.256C130.6 26.256 129.61 27.336 129.61 27.336C128.62 28.416 128.62 30.288 128.62 30.288L128.62 42.6L124.12 42.6L124.12 22.8L128.368 22.8Z"></path></g></g></g><defs><rect id="path_0" x="0" y="0" width="512" height="512" rx="0" ry="0"/></defs></svg>